<?xml version="1.0" encoding="UTF-8" standalone="no"?>
<!-- Created with Inkscape (http://www.inkscape.org/) -->

<svg
   xmlns:dc="http://purl.org/dc/elements/1.1/"
   xmlns:cc="http://creativecommons.org/ns#"
   xmlns:rdf="http://www.w3.org/1999/02/22-rdf-syntax-ns#"
   xmlns:svg="http://www.w3.org/2000/svg"
   xmlns="http://www.w3.org/2000/svg"
   xmlns:xlink="http://www.w3.org/1999/xlink"
   xmlns:sodipodi="http://sodipodi.sourceforge.net/DTD/sodipodi-0.dtd"
   xmlns:inkscape="http://www.inkscape.org/namespaces/inkscape"
   width="102.40635mm"
   height="143.12698mm"
   viewBox="0 0 362.85714 507.14285"
   id="svg3454"
   version="1.1"
   inkscape:version="0.91 r13725"
   sodipodi:docname="Logo université de monastir.svg">
  <title
     id="title4350">Logo Université de Monastir</title>
  <defs
     id="defs3456">
    <linearGradient
       inkscape:collect="always"
       id="linearGradient4319">
      <stop
         style="stop-color:#ed4e03;stop-opacity:1"
         offset="0"
         id="stop4321" />
      <stop
         style="stop-color:#f5ed00;stop-opacity:1"
         offset="1"
         id="stop4323" />
    </linearGradient>
    <linearGradient
       inkscape:collect="always"
       id="linearGradient3497">
      <stop
         style="stop-color:#0d2789;stop-opacity:1"
         offset="0"
         id="stop3499" />
      <stop
         style="stop-color:#092a88;stop-opacity:1"
         offset="1"
         id="stop3501" />
    </linearGradient>
    <linearGradient
       inkscape:collect="always"
       xlink:href="#linearGradient3497"
       id="linearGradient4309"
       x1="386.45499"
       y1="240.70395"
       x2="245.76306"
       y2="531.35748"
       gradientUnits="userSpaceOnUse" />
    <linearGradient
       inkscape:collect="always"
       xlink:href="#linearGradient4319"
       id="linearGradient4325"
       x1="172.1125"
       y1="201.42508"
       x2="172.1125"
       y2="528.71448"
       gradientUnits="userSpaceOnUse" />
    <linearGradient
       inkscape:collect="always"
       xlink:href="#linearGradient4319"
       id="linearGradient4340"
       gradientUnits="userSpaceOnUse"
       x1="172.1125"
       y1="201.42508"
       x2="172.1125"
       y2="528.71448" />
    <linearGradient
       inkscape:collect="always"
       xlink:href="#linearGradient4319"
       id="linearGradient4342"
       gradientUnits="userSpaceOnUse"
       x1="172.1125"
       y1="201.42508"
       x2="172.1125"
       y2="528.71448" />
    <linearGradient
       inkscape:collect="always"
       xlink:href="#linearGradient4319"
       id="linearGradient4344"
       gradientUnits="userSpaceOnUse"
       x1="172.1125"
       y1="201.42508"
       x2="172.1125"
       y2="528.71448" />
    <linearGradient
       inkscape:collect="always"
       xlink:href="#linearGradient3497"
       id="linearGradient4346"
       gradientUnits="userSpaceOnUse"
       x1="386.45499"
       y1="240.70395"
       x2="245.76306"
       y2="531.35748" />
    <linearGradient
       inkscape:collect="always"
       xlink:href="#linearGradient3497"
       id="linearGradient4348"
       gradientUnits="userSpaceOnUse"
       x1="386.45499"
       y1="240.70395"
       x2="245.76306"
       y2="531.35748" />
  </defs>
  <sodipodi:namedview
     id="base"
     pagecolor="#ffffff"
     bordercolor="#666666"
     borderopacity="1.0"
     inkscape:pageopacity="0.0"
     inkscape:pageshadow="2"
     inkscape:zoom="0.7"
     inkscape:cx="144.55103"
     inkscape:cy="218.0292"
     inkscape:document-units="px"
     inkscape:current-layer="layer1"
     showgrid="false"
     inkscape:snap-bbox="false"
     inkscape:bbox-paths="true"
     inkscape:bbox-nodes="true"
     inkscape:snap-bbox-edge-midpoints="true"
     fit-margin-top="0"
     fit-margin-left="0"
     fit-margin-right="0"
     fit-margin-bottom="0"
     inkscape:window-width="1366"
     inkscape:window-height="705"
     inkscape:window-x="-8"
     inkscape:window-y="-8"
     inkscape:window-maximized="1" />
  <metadata
     id="metadata3459">
    <rdf:RDF>
      <cc:Work
         rdf:about="">
        <dc:format>image/svg+xml</dc:format>
        <dc:type
           rdf:resource="http://purl.org/dc/dcmitype/StillImage" />
        <dc:title>Logo Université de Monastir</dc:title>
        <dc:date>24/05/2016</dc:date>
        <dc:creator>
          <cc:Agent>
            <dc:title>Tarek Jellali</dc:title>
          </cc:Agent>
        </dc:creator>
        <dc:rights>
          <cc:Agent>
            <dc:title>CC-BY-NC</dc:title>
          </cc:Agent>
        </dc:rights>
        <dc:source>Wikipedia</dc:source>
        <dc:language>Français</dc:language>
        <dc:subject>
          <rdf:Bag>
            <rdf:li>Université; Monastir</rdf:li>
          </rdf:Bag>
        </dc:subject>
        <dc:description>Logo SVG de l'Université de Monastir.</dc:description>
        <cc:license
           rdf:resource="http://creativecommons.org/licenses/by-nc/3.0/" />
      </cc:Work>
      <cc:License
         rdf:about="http://creativecommons.org/licenses/by-nc/3.0/">
        <cc:permits
           rdf:resource="http://creativecommons.org/ns#Reproduction" />
        <cc:permits
           rdf:resource="http://creativecommons.org/ns#Distribution" />
        <cc:requires
           rdf:resource="http://creativecommons.org/ns#Notice" />
        <cc:requires
           rdf:resource="http://creativecommons.org/ns#Attribution" />
        <cc:prohibits
           rdf:resource="http://creativecommons.org/ns#CommercialUse" />
        <cc:permits
           rdf:resource="http://creativecommons.org/ns#DerivativeWorks" />
      </cc:License>
    </rdf:RDF>
  </metadata>
  <g
     inkscape:label="Calque 1"
     inkscape:groupmode="layer"
     id="layer1"
     transform="translate(-134.28571,-170.93364)">
    <path
       style="fill:#0c2690;fill-opacity:1;fill-rule:evenodd;stroke:none;stroke-width:1px;stroke-linecap:butt;stroke-linejoin:miter;stroke-opacity:1"
       d="m 319.08194,442.86141 c 4.2416,6.963 8.72048,11.82013 14.52093,14.14214 -11.15283,5.63987 -11.44235,9.74445 -14.52093,14.14213 -3.20851,-5.99763 -6.68899,-11.28404 -12.87945,-13.63705 7.23439,-4.1805 8.36722,-7.97384 12.87945,-14.64722 z"
       id="path3486"
       inkscape:connector-curvature="0"
       sodipodi:nodetypes="ccccc" />
    <g
       id="g3479"
       transform="translate(222.85714,18.571429)"
       style="fill:url(#linearGradient4325);fill-opacity:1;stroke:none">
      <path
         sodipodi:nodetypes="czcsc"
         inkscape:connector-curvature="0"
         id="path3473"
         d="m 79.387673,204.15967 c 41.583047,16.13276 14.17992,70.20675 0.37881,93.0603 -13.80111,22.85355 -45.30891,61.11009 -21.19153,116.17126 6.70377,-60.41436 25.69794,-69.26153 47.350467,-106.17425 19.97253,-34.04871 26.28511,-108.27535 -26.537747,-103.05731 z"
         style="fill:url(#linearGradient4340);fill-opacity:1;fill-rule:evenodd;stroke:none;stroke-width:1px;stroke-linecap:butt;stroke-linejoin:miter;stroke-opacity:1" />
      <path
         style="fill:url(#linearGradient4342);fill-opacity:1;fill-rule:evenodd;stroke:none;stroke-width:1px;stroke-linecap:butt;stroke-linejoin:miter;stroke-opacity:1"
         d="m 103.63133,259.71806 c 41.58305,16.13276 14.17992,70.20675 0.37881,93.0603 -13.801107,22.85355 -45.308907,61.11009 -21.191527,116.17126 6.70377,-60.41436 25.697937,-69.26153 47.350467,-106.17425 19.97253,-34.04871 26.28511,-108.27535 -26.53775,-103.05731 z"
         id="path3475"
         inkscape:connector-curvature="0"
         sodipodi:nodetypes="czcsc" />
      <path
         sodipodi:nodetypes="czcsc"
         inkscape:connector-curvature="0"
         id="path3477"
         d="m 129.8953,313.76122 c 41.58305,16.13276 14.17992,70.20675 0.37881,93.0603 -13.80111,22.85355 -45.308907,61.11009 -21.19153,116.17126 6.70377,-60.41436 25.69794,-69.26153 47.35047,-106.17425 19.97253,-34.04871 26.28511,-108.27535 -26.53775,-103.05731 z"
         style="fill:url(#linearGradient4344);fill-opacity:1;fill-rule:evenodd;stroke:none;stroke-width:1px;stroke-linecap:butt;stroke-linejoin:miter;stroke-opacity:1" />
    </g>
    <path
       style="fill:#ffd416;fill-opacity:1;fill-rule:evenodd;stroke:none;stroke-width:1px;stroke-linecap:butt;stroke-linejoin:miter;stroke-opacity:1"
       d="m 193.44421,502.33414 c 74.83269,46.04684 52.13649,93.05438 116.41568,93.05438 64.27919,0 51.68745,-55.43482 106.32296,-92.04422 -69.3583,18.5845 -67.54803,80.82457 -106.82363,80.8122 -39.2756,-0.0124 -26.55025,-57.87714 -115.91501,-81.82236 z"
       id="path3484"
       inkscape:connector-curvature="0"
       sodipodi:nodetypes="czczc" />
    <g
       id="g4305"
       style="fill:url(#linearGradient4309);fill-opacity:1;stroke:#ffffff;stroke-width:1.20000005;stroke-miterlimit:4;stroke-dasharray:none;stroke-opacity:1">
      <path
         sodipodi:nodetypes="czcccc"
         inkscape:connector-curvature="0"
         id="path3488"
         d="m 278.21429,530.93363 c -44.12548,-34.04964 -2.06517,-66.94774 37.83626,-101.09582 39.90144,-34.14808 74.82104,-60.77716 66.80659,-120.68989 -6.81016,19.99751 -15.60062,38.14974 -43.03571,38.92857 -1.96428,6.25 -2.54964,19.62364 3.39286,30.35714 -49.54192,46.52463 -147.65658,100.7815 -65,152.5 z"
         style="fill:url(#linearGradient4346);fill-opacity:1;fill-rule:evenodd;stroke:#ffffff;stroke-width:1.20000005;stroke-linecap:butt;stroke-linejoin:miter;stroke-miterlimit:4;stroke-dasharray:none;stroke-opacity:1" />
      <path
         id="path3492"
         d="m 379.43945,241.20898 c -16.43644,1.6071 -43.65552,24.3472 -52.98242,33.48438 -1.06576,12.76064 -3.01815,21.84809 -0.88672,34.91016 L 335.75,323.1582 c -81.90466,77.37754 -110.86838,113.36951 -89.01953,164.78125 -13.5828,-72.65286 134.26014,-156.22405 139.14844,-206.82812 -0.0405,-13.34015 0.74957,-27.97286 -2.14649,-36.8711 -0.97391,-2.61014 -2.66959,-2.69427 -4.29297,-3.03125 z m -1.13672,23.38477 c -6.12266,18.57214 -19.24451,36.5446 -37.14257,54.10742 0.56267,-3.44215 0.5061,-6.81592 -0.44532,-10.08984 -2.73537,-5.31295 -6.9874,-10.37258 -10.625,-15.53516 14.38673,-16.6072 30.80414,-24.63485 48.21289,-28.48242 z"
         style="fill:url(#linearGradient4348);fill-opacity:1;fill-rule:evenodd;stroke:#ffffff;stroke-width:1.20000005;stroke-linecap:butt;stroke-linejoin:miter;stroke-miterlimit:4;stroke-dasharray:none;stroke-opacity:1"
         inkscape:connector-curvature="0" />
    </g>
    <g
       transform="translate(0,8)"
       style="font-style:normal;font-weight:normal;font-size:19.1160965px;line-height:125%;font-family:sans-serif;letter-spacing:0px;word-spacing:0px;fill:#0d2789;fill-opacity:1;stroke:none;stroke-width:1px;stroke-linecap:butt;stroke-linejoin:miter;stroke-opacity:1"
       id="text4327">
      <path
         d="m 195.96327,563.77579 1.70921,0.9706 -4.23764,7.4624 q -1.10569,1.94709 -2.19661,2.84229 -1.09093,0.89519 -2.65534,0.96223 -1.55061,0.0632 -3.41841,-0.99742 -1.81494,-1.03064 -2.61388,-2.31159 -0.79894,-1.28095 -0.6219,-2.74171 0.18204,-1.46958 1.34777,-3.5224 l 4.23764,-7.4624 1.70921,0.97061 -4.23264,7.45359 q -0.95559,1.68278 -1.10251,2.65963 -0.13311,0.97305 0.37943,1.83503 0.52135,0.86698 1.62265,1.49237 1.88542,1.07067 3.17247,0.67134 1.28705,-0.39932 2.66791,-2.83099 l 4.23264,-7.45358 z"
         style="font-style:normal;font-variant:normal;font-weight:normal;font-stretch:normal;font-size:20.75px;font-family:Arial;-inkscape-font-specification:Arial;fill:#0d2789;fill-opacity:1"
         id="path4353" />
      <path
         d="m 193.20414,579.22389 6.7993,-13.20565 1.79258,0.92296 1.59779,13.9394 5.33833,-10.36814 1.67548,0.86266 -6.7993,13.20565 -1.79258,-0.92296 -1.59315,-13.94841 -5.34297,10.37716 -1.67548,-0.86267 z"
         style="font-style:normal;font-variant:normal;font-weight:normal;font-stretch:normal;font-size:20.75px;font-family:Arial;-inkscape-font-specification:Arial;fill:#0d2789;fill-opacity:1"
         id="path4355" />
      <path
         d="m 206.90843,586.13714 6.39266,-13.40723 1.77421,0.84596 -6.39265,13.40723 -1.77422,-0.84596 z"
         style="font-style:normal;font-variant:normal;font-weight:normal;font-stretch:normal;font-size:20.75px;font-family:Arial;-inkscape-font-specification:Arial;fill:#0d2789;fill-opacity:1"
         id="path4357" />
      <path
         d="m 215.68202,590.19177 0.70425,-15.9136 1.94805,0.85566 -0.80506,11.4318 q -0.0948,1.37481 -0.2636,2.54008 0.80434,-0.97463 1.71073,-1.90445 l 8.01285,-8.26589 1.83673,0.80676 -11.29794,11.26047 -1.84601,-0.81083 z"
         style="font-style:normal;font-variant:normal;font-weight:normal;font-stretch:normal;font-size:20.75px;font-family:Arial;-inkscape-font-specification:Arial;fill:#0d2789;fill-opacity:1"
         id="path4359" />
      <path
         d="m 224.55147,594.01074 5.32723,-13.86507 10.02523,3.85188 -0.62866,1.63619 -8.19042,-3.14692 -1.6316,4.24654 7.67024,2.94705 -0.62502,1.62674 -7.67024,-2.94706 -1.81329,4.71943 8.51198,3.27046 -0.62866,1.63619 -10.34679,-3.97543 z"
         style="font-style:normal;font-variant:normal;font-weight:normal;font-stretch:normal;font-size:20.75px;font-family:Arial;-inkscape-font-specification:Arial;fill:#0d2789;fill-opacity:1"
         id="path4361" />
      <path
         d="m 237.50438,598.91918 4.58045,-14.12938 6.26473,2.0309 q 1.88905,0.61239 2.74716,1.31661 0.86122,0.69458 1.1367,1.84898 0.27547,1.15439 -0.10259,2.32059 -0.48741,1.50354 -1.79517,2.21924 -1.30776,0.7157 -3.432,0.33594 0.62653,0.59719 0.89957,1.06914 0.57553,1.01735 0.94246,2.38246 l 1.21104,4.64231 -2.35168,-0.76236 -0.91683,-3.54575 q -0.4068,-1.5378 -0.71818,-2.38431 -0.31138,-0.84651 -0.64797,-1.25385 -0.32695,-0.40422 -0.72629,-0.65084 -0.29619,-0.17057 -1.01904,-0.4049 l -2.16856,-0.70301 -2.03402,6.27437 -1.86978,-0.60614 z m 4.42871,-7.28742 4.01906,1.3029 q 1.28186,0.41555 2.08907,0.38966 0.81034,-0.0355 1.37369,-0.49196 0.56648,-0.46607 0.78832,-1.15037 0.32494,-1.00235 -0.19821,-1.88556 -0.51352,-0.88008 -2.08452,-1.38937 l -4.47205,-1.44975 -1.51536,4.67445 z"
         style="font-style:normal;font-variant:normal;font-weight:normal;font-stretch:normal;font-size:20.75px;font-family:Arial;-inkscape-font-specification:Arial;fill:#0d2789;fill-opacity:1"
         id="path4363" />
      <path
         d="m 252.33183,598.65246 1.83486,0.31202 q -0.1544,1.11158 0.12442,1.92798 0.29118,0.80916 1.1587,1.49667 0.87009,0.67772 2.09541,0.99798 1.08808,0.28438 2.00585,0.17867 0.91776,-0.10571 1.4657,-0.55941 0.56031,-0.46094 0.73453,-1.12751 0.17678,-0.67638 -0.0847,-1.27879 -0.25887,-0.61221 -1.07104,-1.19101 -0.51942,-0.37662 -2.37656,-1.36468 -1.85457,-0.99786 -2.53841,-1.62689 -0.88835,-0.80816 -1.19056,-1.73539 -0.28984,-0.93448 -0.0311,-1.92454 0.28438,-1.08808 1.1479,-1.86771 0.86608,-0.78944 2.18029,-0.96956 1.31421,-0.18012 2.76499,0.19906 1.59782,0.41762 2.67754,1.25485 1.0921,0.82999 1.48754,2.00151 0.39544,1.17151 0.11395,2.44885 l -1.85915,-0.3393 q 0.20909,-1.40099 -0.46183,-2.31987 -0.66111,-0.91632 -2.31774,-1.3493 -1.72525,-0.45093 -2.68579,-0.0213 -0.94817,0.4224 -1.18132,1.31444 -0.2024,0.7744 0.22568,1.42036 0.41828,0.64341 2.59333,1.77739 2.18741,1.12674 2.94755,1.74431 1.10357,0.90629 1.46838,1.95461 0.36737,1.03851 0.065,2.19521 -0.29976,1.1469 -1.22299,1.99471 -0.92066,0.838 -2.30438,1.08373 -1.37136,0.23849 -2.91036,-0.16375 -1.9507,-0.50985 -3.12545,-1.42428 -1.16494,-0.91186 -1.62254,-2.24623 -0.44523,-1.34162 -0.10782,-2.79284 z"
         style="font-style:normal;font-variant:normal;font-weight:normal;font-stretch:normal;font-size:20.75px;font-family:Arial;-inkscape-font-specification:Arial;fill:#0d2789;fill-opacity:1"
         id="path4365" />
      <path
         d="m 265.545,606.86997 3.15217,-14.51494 1.92081,0.41714 -3.15218,14.51494 -1.9208,-0.41714 z"
         style="font-style:normal;font-variant:normal;font-weight:normal;font-stretch:normal;font-size:20.75px;font-family:Arial;-inkscape-font-specification:Arial;fill:#0d2789;fill-opacity:1"
         id="path4367" />
      <path
         d="m 274.56485,608.67662 2.2455,-12.90658 -4.82125,-0.83881 0.30044,-1.72686 11.59896,2.018 -0.30045,1.72686 -4.84121,-0.84228 -2.24551,12.90659 -1.93648,-0.33692 z"
         style="font-style:normal;font-variant:normal;font-weight:normal;font-stretch:normal;font-size:20.75px;font-family:Arial;-inkscape-font-specification:Arial;fill:#0d2789;fill-opacity:1"
         id="path4369" />
      <path
         d="m 283.47415,610.1453 1.62525,-14.76409 10.67526,1.17515 -0.19179,1.74228 -8.72149,-0.96007 -0.49777,4.52188 8.16758,0.89909 -0.19068,1.73222 -8.16758,-0.8991 -0.55321,5.02543 9.0639,0.99776 -0.19179,1.74229 -11.01768,-1.21284 z"
         style="font-style:normal;font-variant:normal;font-weight:normal;font-stretch:normal;font-size:20.75px;font-family:Arial;-inkscape-font-specification:Arial;fill:#0d2789;fill-opacity:1"
         id="path4371" />
      <path
         d="m 302.97247,611.87985 0.13559,-14.85265 5.11636,0.0467 q 1.73247,0.0158 2.64236,0.2369 1.27388,0.30547 2.16854,1.08369 1.16618,1.0036 1.72952,2.55898 0.57356,1.54534 0.55544,3.5311 -0.0155,1.69194 -0.42251,2.99529 -0.40705,1.30335 -1.03293,2.15887 -0.62579,0.8454 -1.36991,1.33509 -0.7339,0.47965 -1.77975,0.72341 -1.03572,0.24385 -2.38319,0.23155 l -5.35952,-0.0489 z m 1.98149,-1.73479 3.17114,0.029 q 1.46905,0.0134 2.30232,-0.25256 0.84341,-0.26587 1.34438,-0.75778 0.70545,-0.69268 1.10117,-1.86441 0.40595,-1.18177 0.4213,-2.86358 0.0213,-2.33023 -0.73734,-3.58342 -0.74838,-1.26323 -1.83869,-1.69874 -0.78748,-0.31116 -2.54021,-0.32716 l -3.12048,-0.0285 -0.10359,11.34719 z"
         style="font-style:normal;font-variant:normal;font-weight:normal;font-stretch:normal;font-size:20.75px;font-family:Arial;-inkscape-font-specification:Arial;fill:#0d2789;fill-opacity:1"
         id="path4373" />
      <path
         d="m 318.01021,611.87621 -0.97329,-14.82135 10.71667,-0.70373 0.11485,1.74904 -8.75531,0.57494 0.29809,4.53941 8.19926,-0.53842 0.11419,1.73893 -8.19926,0.53842 0.33129,5.04492 9.09906,-0.59751 0.11485,1.74904 -11.0604,0.72631 z"
         style="font-style:normal;font-variant:normal;font-weight:normal;font-stretch:normal;font-size:20.75px;font-family:Arial;-inkscape-font-specification:Arial;fill:#0d2789;fill-opacity:1"
         id="path4375" />
      <path
         d="m 337.45598,610.19979 -2.62349,-14.61975 2.91198,-0.52255 5.31803,9.73052 q 0.73817,1.36012 1.08642,2.03877 0.10614,-0.84254 0.35731,-2.48313 l 1.67501,-10.80013 2.60283,-0.46707 2.6235,14.61974 -1.86487,0.33465 -2.19579,-12.23631 -2.05251,12.99866 -1.7452,0.31318 -6.46173,-11.68696 2.23338,12.44573 -1.86487,0.33465 z"
         style="font-style:normal;font-variant:normal;font-weight:normal;font-stretch:normal;font-size:20.75px;font-family:Arial;-inkscape-font-specification:Arial;fill:#0d2789;fill-opacity:1"
         id="path4377" />
      <path
         d="m 352.05672,600.13846 q -0.96534,-3.56991 0.40683,-6.10308 1.36953,-2.54295 4.4015,-3.36282 1.98545,-0.53689 3.83623,-0.0193 1.85077,0.51762 3.14231,1.99463 1.29867,1.46459 1.88052,3.61631 0.58978,2.18107 0.175,4.14047 -0.41477,1.95941 -1.78789,3.28583 -1.37576,1.31663 -3.24385,1.82178 -2.02457,0.54747 -3.88328,5.1e-4 -1.85871,-0.54696 -3.13782,-2.01684 -1.27911,-1.46988 -1.78955,-3.35752 z m 1.96405,-0.49962 q 0.70086,2.59185 2.49435,3.71272 1.80062,1.10845 3.90344,0.53982 2.14194,-0.5792 3.11371,-2.45832 0.98155,-1.88176 0.23308,-4.64966 -0.47341,-1.75072 -1.42178,-2.8902 -0.94123,-1.15191 -2.27863,-1.55645 -1.33025,-0.41697 -2.74843,-0.0335 -2.0148,0.54482 -3.09655,2.32773 -1.07461,1.77048 -0.19919,5.00784 z"
         style="font-style:normal;font-variant:normal;font-weight:normal;font-stretch:normal;font-size:20.75px;font-family:Arial;-inkscape-font-specification:Arial;fill:#0d2789;fill-opacity:1"
         id="path4379" />
      <path
         d="m 370.0356,602.61353 -4.97972,-13.99364 1.89954,-0.67597 11.25973,8.37128 -3.90973,-10.98682 1.77546,-0.63181 4.97972,13.99364 -1.89954,0.67597 -11.26313,-8.38082 3.91313,10.99636 -1.77546,0.63181 z"
         style="font-style:normal;font-variant:normal;font-weight:normal;font-stretch:normal;font-size:20.75px;font-family:Arial;-inkscape-font-specification:Arial;fill:#0d2789;fill-opacity:1"
         id="path4381" />
      <path
         d="m 382.64138,598.10185 -0.69747,-15.89564 1.94161,-0.84509 11.50176,11.19307 -2.05309,0.89361 -3.3839,-3.43333 -5.69478,2.47866 0.29961,4.77576 -1.91374,0.83296 z m 1.4955,-7.30298 4.61713,-2.00961 -3.06302,-3.15309 q -1.39835,-1.43561 -2.19538,-2.40364 0.31001,1.4231 0.39826,2.92063 l 0.24301,4.64571 z"
         style="font-style:normal;font-variant:normal;font-weight:normal;font-stretch:normal;font-size:20.75px;font-family:Arial;-inkscape-font-specification:Arial;fill:#0d2789;fill-opacity:1"
         id="path4383" />
      <path
         d="m 394.03654,587.8769 1.57706,-0.9884 q 0.62464,0.93235 1.37611,1.35607 0.75587,0.41008 1.86093,0.34577 1.10044,-0.0733 2.22808,-0.64988 1.00134,-0.51197 1.61592,-1.20172 0.61458,-0.68975 0.72154,-1.39306 0.11137,-0.71694 -0.20227,-1.33037 -0.31825,-0.62246 -0.91433,-0.89804 -0.60069,-0.2846 -1.59206,-0.176 -0.63833,0.0646 -2.68198,0.56333 -2.04827,0.48967 -2.97731,0.47537 -1.2009,-0.0119 -2.0436,-0.50273 -0.83829,-0.5045 -1.30414,-1.41563 -0.51197,-1.00134 -0.38643,-2.15794 0.12093,-1.16563 0.98186,-2.17478 0.86093,-1.00915 2.19605,-1.69178 1.47044,-0.75182 2.83351,-0.84564 1.36748,-0.10745 2.44236,0.50367 1.07487,0.61112 1.71498,1.75178 l -1.61335,0.9842 q -0.77644,-1.18475 -1.88875,-1.42397 -1.1033,-0.24383 -2.62786,0.53566 -1.58771,0.81178 -2.01862,1.77176 -0.42649,0.94634 -0.007,1.76726 0.36437,0.71266 1.11381,0.90983 0.74041,0.20178 3.11846,-0.3996 2.38245,-0.61502 3.3608,-0.66006 1.42683,-0.0581 2.39684,0.48142 0.9654,0.53055 1.50967,1.59503 0.53964,1.05547 0.41492,2.30269 -0.12934,1.23821 -0.99848,2.34259 -0.86473,1.09075 -2.28104,1.81489 -1.7952,0.91787 -3.28056,1.01731 -1.47635,0.0948 -2.70601,-0.59645 -1.22525,-0.70493 -1.93935,-2.01258 z"
         style="font-style:normal;font-variant:normal;font-weight:normal;font-stretch:normal;font-size:20.75px;font-family:Arial;-inkscape-font-specification:Arial;fill:#0d2789;fill-opacity:1"
         id="path4385" />
      <path
         d="m 412.3585,583.50697 -6.60579,-11.31308 -4.226,2.46759 -0.88383,-1.51366 10.16689,-5.93652 0.88384,1.51366 -4.2435,2.47781 6.60579,11.31308 -1.6974,0.99112 z"
         style="font-style:normal;font-variant:normal;font-weight:normal;font-stretch:normal;font-size:20.75px;font-family:Arial;-inkscape-font-specification:Arial;fill:#0d2789;fill-opacity:1"
         id="path4387" />
      <path
         d="m 420.33752,578.68867 -7.95498,-12.54344 1.65991,-1.05271 7.95498,12.54345 -1.65991,1.0527 z"
         style="font-style:normal;font-variant:normal;font-weight:normal;font-stretch:normal;font-size:20.75px;font-family:Arial;-inkscape-font-specification:Arial;fill:#0d2789;fill-opacity:1"
         id="path4389" />
      <path
         d="m 424.95498,575.78889 -8.43528,-12.22562 5.42064,-3.74006 q 1.63453,-1.12778 2.71531,-1.3811 1.07503,-0.26167 2.15913,0.22129 1.0841,0.48295 1.78032,1.49202 0.89762,1.30096 0.67101,2.77442 -0.22661,1.47347 -1.81937,2.9294 0.85503,-0.1345 1.39575,-0.0644 1.15766,0.16139 2.46467,0.6998 l 4.42238,1.86018 -2.03482,1.40396 -3.37281,-1.42726 q -1.46837,-0.61172 -2.32981,-0.87901 -0.86145,-0.2673 -1.3895,-0.24763 -0.5197,0.0139 -0.95827,0.18111 -0.31548,0.1315 -0.94094,0.56305 l -1.87637,1.29464 3.74582,5.42897 -1.61786,1.11627 z m -3.09462,-7.94627 3.47754,-2.39939 q 1.10915,-0.76528 1.57925,-1.42199 0.46435,-0.66505 0.44435,-1.38982 -0.0257,-0.73311 -0.43428,-1.32521 -0.59841,-0.8673 -1.61773,-0.98874 -1.01097,-0.1272 -2.3703,0.81069 l -3.8695,2.66983 2.79067,4.04463 z"
         style="font-style:normal;font-variant:normal;font-weight:normal;font-stretch:normal;font-size:20.75px;font-family:Arial;-inkscape-font-specification:Arial;fill:#0d2789;fill-opacity:1"
         id="path4391" />
    </g>
    <path
       style="fill:none;fill-rule:evenodd;stroke:none;stroke-width:1px;stroke-linecap:butt;stroke-linejoin:miter;stroke-opacity:1"
       d="m 178.797,571.02452 c 86.24375,51.19225 170.83697,57.82038 253.04321,0"
       id="path4333"
       inkscape:connector-curvature="0"
       sodipodi:nodetypes="cc" />
  </g>
</svg>
